<svg width="36" height="36" viewBox="0 0 36 36" fill="none" xmlns="http://www.w3.org/2000/svg">
<path d="M11.909 32.319C11.4872 31.8971 11.2502 31.3249 11.2502 30.7283C11.2502 30.1316 11.4872 29.5595 11.909 29.1375L23.0465 18L11.909 6.86251C11.4992 6.43816 11.2724 5.8698 11.2775 5.27986C11.2826 4.68992 11.5193 4.12559 11.9364 3.70842C12.3536 3.29125 12.9179 3.05463 13.5079 3.0495C14.0978 3.04437 14.6662 3.27116 15.0905 3.68102L27.8188 16.4093C28.2406 16.8312 28.4775 17.4034 28.4775 18C28.4775 18.5966 28.2406 19.1688 27.8188 19.5908L15.0905 32.319C14.6686 32.7408 14.0964 32.9778 13.4998 32.9778C12.9032 32.9778 12.331 32.7408 11.909 32.319Z" fill="#DFA040"/>
</svg>
