<svg width="36" height="36" viewBox="0 0 36 36" fill="none" xmlns="http://www.w3.org/2000/svg">
<path d="M24.0905 3.65877C24.5123 4.08071 24.7493 4.6529 24.7493 5.24952C24.7493 5.84614 24.5123 6.41833 24.0905 6.84027L12.953 17.9778L24.0905 29.1153C24.5003 29.5396 24.7271 30.108 24.722 30.6979C24.7169 31.2879 24.4803 31.8522 24.0631 32.2694C23.6459 32.6865 23.0816 32.9232 22.4916 32.9283C21.9017 32.9334 21.3333 32.7066 20.909 32.2968L8.18074 19.5685C7.75893 19.1466 7.52197 18.5744 7.52197 17.9778C7.52197 17.3812 7.75893 16.809 8.18074 16.387L20.909 3.65877C21.3309 3.23696 21.9031 3 22.4997 3C23.0964 3 23.6686 3.23696 24.0905 3.65877Z" fill="#DFA040"/>
</svg>
