<svg width="10" height="6" viewBox="0 0 10 6" fill="none" xmlns="http://www.w3.org/2000/svg">
<path d="M9.77309 0.469744C9.63244 0.329141 9.44171 0.250154 9.24284 0.250154C9.04396 0.250154 8.85323 0.329141 8.71259 0.469744L5.00009 4.18224L1.28759 0.469745C1.14613 0.333126 0.956683 0.257531 0.760035 0.25924C0.563387 0.260948 0.375278 0.339825 0.236222 0.478881C0.0971656 0.617937 0.0182901 0.806047 0.0165811 1.00269C0.0148721 1.19934 0.090468 1.38879 0.227087 1.53024L4.46984 5.77299C4.61048 5.9136 4.80121 5.99258 5.00009 5.99258C5.19896 5.99258 5.38969 5.9136 5.53034 5.77299L9.77309 1.53024C9.91369 1.3896 9.99268 1.19887 9.99268 0.999994C9.99268 0.801121 9.91369 0.61039 9.77309 0.469744Z" fill="#DFA040"/>
</svg>
