<svg width="492" height="328" viewBox="0 0 492 328" fill="none" xmlns="http://www.w3.org/2000/svg">
<g clip-path="url(#clip0_1680_417)">
<path opacity="0.2" d="M391.989 315.189C419.087 315.189 441.054 311.532 441.054 307.021C441.054 302.509 419.087 298.852 391.989 298.852C364.891 298.852 342.923 302.509 342.923 307.021C342.923 311.532 364.891 315.189 391.989 315.189Z" fill="#161826"/>
<path opacity="0.2" d="M241.385 315.803C268.483 315.803 290.45 312.146 290.45 307.635C290.45 303.123 268.483 299.466 241.385 299.466C214.287 299.466 192.32 303.123 192.32 307.635C192.32 312.146 214.287 315.803 241.385 315.803Z" fill="#161826"/>
<path opacity="0.2" d="M102.639 315.803C129.737 315.803 151.704 312.146 151.704 307.635C151.704 303.123 129.737 299.466 102.639 299.466C75.541 299.466 53.5737 303.123 53.5737 307.635C53.5737 312.146 75.541 315.803 102.639 315.803Z" fill="#161826"/>
<path d="M376.697 289.869L376.055 304.279C376.055 304.279 336.505 319.799 367.79 302.296L368.237 278.946L376.697 289.869Z" fill="white"/>
<path d="M366.605 301.866L368.077 304.134L376.918 301.12L376.976 304.557C376.976 304.557 332.534 322.496 366.605 301.866Z" fill="#DFA040"/>
<path d="M398.424 284.141L399.3 304.701C399.3 304.701 442.088 316.708 407.908 302.271L406.668 273.249L398.424 284.141Z" fill="white"/>
<path d="M398.169 302.768L407.384 304.905L409.051 301.725C409.051 301.725 423.264 307.059 422.841 310.145C422.419 313.232 397.872 305.592 397.872 305.592L398.169 302.768Z" fill="#DFA040"/>
<path d="M371.793 156.075C371.793 156.075 367.861 164.84 368.589 179.958C368.589 179.958 373.537 192.406 390.035 198.725C390.035 198.725 394.56 279.442 395.759 296.536C395.759 296.536 403.354 298.048 409.568 296.647C409.568 296.647 423.056 190.726 409.936 163.779L371.793 156.075Z" fill="#DFA040"/>
<path opacity="0.3" d="M371.793 156.075C371.793 156.075 367.861 164.84 368.589 179.958C368.589 179.958 373.537 192.406 390.035 198.725C390.035 198.725 394.56 279.442 395.759 296.536C395.759 296.536 403.354 298.048 409.568 296.647C409.568 296.647 423.056 190.726 409.936 163.779L371.793 156.075Z" fill="#001C28"/>
<path d="M408.435 157.663C408.435 157.663 413.413 171.163 414.004 184.179C414.004 184.179 410.38 190.195 393.715 196.058C393.715 196.058 379.964 280.863 378.295 297.917C378.295 297.917 371.979 298.954 365.806 297.383C365.806 297.383 356.402 192.592 370.303 166.399L408.435 157.663Z" fill="#DFA040"/>
<path d="M454.597 111.269C454.597 111.269 473.674 81.8902 459.395 100.614C459.395 100.614 469.944 83.2237 458.04 99.0244C458.04 99.0244 468.917 81.3768 455.991 97.7667C455.991 97.7667 465.877 81.4259 452.551 98.6595C452.551 98.6595 446.245 85.359 450.452 101.259L446.047 107.682L454.597 111.269Z" fill="#965450"/>
<path d="M382.079 109.427C382.079 109.427 392.614 125.931 399.408 128.959C406.203 131.987 434.622 142.804 438.053 140.165C441.483 137.525 458.754 110.104 458.754 110.104L445.731 103.689L431.575 122.351C431.575 122.351 416.618 112.56 411.132 111.157C405.647 109.754 382.079 109.427 382.079 109.427Z" fill="#DFA040"/>
<path opacity="0.2" d="M382.079 109.427C382.079 109.427 392.614 125.931 399.408 128.959C406.203 131.987 434.622 142.804 438.053 140.165C441.483 137.525 458.754 110.104 458.754 110.104L445.731 103.689L431.575 122.351C431.575 122.351 416.618 112.56 411.132 111.157C405.647 109.754 382.079 109.427 382.079 109.427Z" fill="#161826"/>
<path d="M458.056 111.227C458.499 110.518 458.755 110.104 458.755 110.104L445.731 103.689L444.905 104.778L458.056 111.227Z" fill="white"/>
<path d="M377.873 110.049C377.511 110.4 375.368 111.141 372.818 111.934C373.548 114.083 374.374 116.243 375.764 117.807C378.181 120.529 382.352 121.996 385.824 122.062C392.157 122.183 400.077 118.11 400.627 112.208C398.666 111.431 392.246 110.36 391.723 110.279C389.905 110.001 390.678 97.1605 390.678 97.1605L376.64 95.5419C376.64 95.5432 378.846 109.105 377.873 110.049Z" fill="#76413B"/>
<path d="M391.408 110.082C386.701 109.935 382.073 109.28 378.086 107.31C377.866 103.083 376.64 95.5432 376.64 95.5432L390.678 97.1612C390.678 97.1612 390 108.426 391.408 110.082Z" fill="#633633"/>
<path d="M362.984 191.504C367.104 194.405 370.66 195.29 375.227 195.54C381.868 195.902 388.643 195.806 395.286 195.523C396.564 195.469 397.832 195.391 399.096 195.296L399.227 180.942L400.778 195.149C406.547 194.633 409.459 192.928 414.921 191.504C412.875 168.325 413.175 132.427 409.247 110.908L396.89 109.1L396.606 105.857L390.907 106.385L389.689 107.547L389.845 114.418L387.178 115.93L386.169 108.365L384.776 107.522L375.845 106.883L375.703 110.324L359.492 112.899C359.493 112.899 364.496 167.121 362.984 191.504Z" fill="#DFA040"/>
<path d="M356.001 178.642C356.001 178.642 356.874 168.614 362.766 160.984C362.766 160.984 359.493 167.96 359.275 176.897" stroke="white" stroke-width="2" stroke-miterlimit="10" stroke-linecap="round" stroke-linejoin="round"/>
<path d="M396.606 105.857C395.461 106.02 393.834 105.991 391.162 106.402C390.098 106.566 389.644 107.494 389.712 108.144C389.74 110.274 389.789 112.361 389.846 114.416" stroke="white" stroke-width="0.7947" stroke-miterlimit="10"/>
<path d="M375.846 106.883C380.442 107.138 380.143 107.382 384.726 107.382C385.38 107.382 386.035 108.036 386.035 108.69C386.364 110.829 386.652 112.927 386.919 114.996C387.151 116.794 391.211 112.957 391.424 114.718C391.941 118.981 392.262 133.692 392.94 137.893" stroke="white" stroke-width="1.0348" stroke-miterlimit="10"/>
<path d="M387.938 118.504C387.938 119.09 388.413 119.564 388.999 119.564C389.585 119.564 390.06 119.09 390.06 118.504C390.06 117.919 389.585 117.444 388.999 117.444C388.412 117.444 387.938 117.919 387.938 118.504Z" fill="white"/>
<path d="M388.847 128.048C388.847 128.633 389.322 129.108 389.908 129.108C390.494 129.108 390.969 128.633 390.969 128.048C390.969 127.462 390.494 126.987 389.908 126.987C389.322 126.987 388.847 127.462 388.847 128.048Z" fill="white"/>
<path d="M372.149 129.592L408.811 126.976L415.357 174.064C415.357 174.064 419.067 217.01 419.722 252.98L368.221 254.506C368.221 254.506 378.26 169.268 372.149 129.592Z" fill="white"/>
<path opacity="0.1" d="M415.777 179.173C412.189 187.034 406.708 194.215 399.838 199.485C392.437 205.16 383.684 206.677 374.585 207.458C373.88 207.518 373.159 207.594 372.426 207.675C370.683 233.599 368.221 254.506 368.221 254.506L419.722 252.981C419.203 224.475 416.766 191.595 415.777 179.173Z" fill="#061B38"/>
<path d="M402.619 109.59L404.228 128.066L405.483 128.802L404.01 109.917L402.619 109.59Z" fill="white"/>
<path d="M382.188 162.728C381.533 162.728 369.749 163.818 362.766 160.984M362.766 160.984C355.783 158.15 357.311 140.71 362.766 160.984ZM362.766 160.984C362.766 160.984 354.037 155.316 353.819 158.586C353.597 161.899 363.202 161.202 363.202 161.202" stroke="white" stroke-width="2" stroke-miterlimit="10" stroke-linecap="round" stroke-linejoin="round"/>
<path d="M367.349 111.498C367.349 111.498 373.459 126.104 374.55 130.9L376.296 130.683L368.877 111.063L367.349 111.498Z" fill="white"/>
<path d="M351.543 158.445L352.734 159.341L363.159 178.731C363.159 178.731 363.911 174.477 364.962 174.536C366.012 174.595 381.742 180.004 365.149 176.253C365.149 176.253 387.045 183.944 364.878 178.542C364.878 178.542 383.719 185.35 365.122 180.776C365.122 180.776 381.843 187.293 365.463 182.303C365.463 182.303 365.208 186.329 361.637 185.502C358.067 184.675 336.744 157.152 338.216 154.226C339.688 151.3 351.543 158.445 351.543 158.445Z" fill="#965450"/>
<path d="M367.831 128.751C366.335 123.163 365.251 117.421 363.846 111.855C360.037 111.933 356.453 112.524 354.437 114.165C348.669 118.859 334.458 150.304 335.27 154.553C336.082 158.802 350.328 182.021 350.328 182.021L361.931 173.299L351.637 152.264L365.058 132.644L367.831 128.751Z" fill="#DFA040"/>
<path d="M349.639 180.892C350.073 181.606 350.327 182.021 350.327 182.021L361.931 173.299L361.33 172.073L349.639 180.892Z" fill="white"/>
<path d="M368.845 79.8668C368.845 79.8668 363.418 83.1806 367.56 90.0005C367.56 90.0005 372.152 88.1765 368.845 79.8668Z" fill="white"/>
<path opacity="0.2" d="M368.845 79.8668C368.845 79.8668 363.418 83.1806 367.56 90.0005C367.56 90.0005 372.152 88.1765 368.845 79.8668Z" fill="#061B38"/>
<path d="M368.456 78.4005C368.456 78.4005 359.677 79.1317 360.653 89.1196C360.653 89.1196 367.481 89.6061 368.456 78.4005Z" fill="white"/>
<path opacity="0.1" d="M368.456 78.4005C368.456 78.4005 359.677 79.1317 360.653 89.1196C360.653 89.1196 367.481 89.6061 368.456 78.4005Z" fill="#061B38"/>
<path d="M375.529 73.253C375.529 73.253 379.936 63.9315 390.021 66.5201C400.106 69.1086 401.042 79.4752 401.803 88.5474C402.564 97.6197 399.192 105.576 391.144 106.085C384.153 106.527 372.099 104.459 375.529 73.253Z" fill="#965450"/>
<path d="M375.41 83.7419C375.41 83.7419 374.898 82.0369 372.274 83.7334C368.945 85.8857 371.707 94.646 375.618 93.9887C379.529 93.3315 375.41 83.7419 375.41 83.7419Z" fill="#965450"/>
<path d="M376.638 89.4408C377.18 89.3485 377.722 89.255 378.265 89.1622C378.242 86.675 378.13 84.1146 377.84 82.082C381.47 76.8212 382.31 73.7578 380.561 67.0308C376.547 66.0282 377.5 69.1955 374.757 65.8327C377.974 65.7032 373.514 64.2794 373.301 64.3311C364.13 66.5828 366.786 78.0128 370.911 88.6357C370.911 88.6357 370.414 82.7013 374.179 83.4946C375.16 83.7026 375.997 86.3977 376.638 89.4408Z" fill="#1F2733"/>
<path d="M375.936 86.3951C375.936 86.3951 374.47 98.7563 378.965 104.063C382.051 107.706 394.246 109.403 399.502 106.11C402.28 104.37 402.523 99.3037 401.726 94.5472C401.726 94.5472 400.616 100.013 399.413 99.5679C397.833 98.9833 399.931 93.9161 397.275 93.9161C394.619 93.9161 384.415 91.0725 383.598 95.5628C382.781 100.053 380.718 99.0729 379.901 97.0317C379.084 94.9906 379.455 86.1786 377.82 79.8511C376.185 73.5237 375.936 86.3951 375.936 86.3951Z" fill="#1F2733"/>
<path d="M367.237 79.6183C367.237 79.6183 364.311 67.9248 368.944 64.0269C373.577 60.1291 399.914 54.039 399.426 74.746C399.426 74.746 386.258 76.4516 367.237 79.6183Z" fill="white"/>
<path opacity="0.1" d="M380.606 69.8893C379.478 66.8855 378.903 63.7352 378.661 60.5352C374.243 61.2709 370.448 62.762 368.944 64.0275C364.311 67.9254 367.237 79.6189 367.237 79.6189C374.35 78.4345 380.644 77.4548 385.737 76.6922C383.516 75.1148 381.73 72.8827 380.606 69.8893Z" fill="#061B38"/>
<path d="M390.453 80.3991C390.453 80.3991 390.298 80.3488 390.027 80.2605C389.762 80.1735 389.386 80.0623 388.95 79.9446C388.732 79.8857 388.495 79.8341 388.251 79.7791C388.01 79.7111 387.742 79.7026 387.485 79.6424C387.219 79.6313 386.953 79.5666 386.679 79.5738C386.543 79.5685 386.406 79.5679 386.27 79.5561L385.861 79.579C385.585 79.5672 385.32 79.6411 385.05 79.6634C384.781 79.6967 384.527 79.7863 384.266 79.8308C384.012 79.8982 383.771 79.9917 383.529 80.0597C383.287 80.1271 383.08 80.2494 382.864 80.3233C382.659 80.4135 382.45 80.4743 382.288 80.5678C382.122 80.6555 381.966 80.7222 381.838 80.7804C381.581 80.8955 381.417 80.9524 381.417 80.9524C381.417 80.9524 381.489 80.8052 381.644 80.5633C381.723 80.4429 381.816 80.2925 381.938 80.131C382.049 79.957 382.212 79.7994 382.394 79.628C382.58 79.4619 382.76 79.2428 383.012 79.0977C383.259 78.944 383.51 78.7523 383.805 78.6189C384.106 78.5032 384.411 78.3475 384.749 78.2775C385.085 78.2069 385.429 78.1199 385.781 78.1199L386.306 78.1082C386.48 78.1212 386.651 78.1461 386.821 78.1651C387.164 78.1899 387.483 78.3096 387.793 78.3874C388.093 78.5058 388.383 78.613 388.634 78.7615C388.895 78.889 389.12 79.044 389.321 79.1958C390.133 79.7916 390.453 80.3991 390.453 80.3991Z" fill="#1F2733"/>
<path d="M400.912 80.2082C400.912 80.2082 400.429 79.9329 399.793 79.6059C399.467 79.4509 399.103 79.2861 398.725 79.1533C398.532 79.1023 398.342 79.029 398.146 78.999C398.05 78.9813 397.951 78.9676 397.856 78.9421L397.563 78.9244C397.369 78.8825 397.174 78.9401 396.978 78.927C396.783 78.9519 396.59 78.997 396.393 79.0166C396.203 79.0801 396.013 79.1317 395.824 79.1782C395.636 79.2468 395.458 79.3122 395.294 79.3724C395.125 79.4313 394.961 79.4868 394.827 79.5562C394.69 79.6216 394.56 79.6693 394.453 79.7118C394.236 79.7936 394.099 79.8348 394.099 79.8348C394.099 79.8348 394.146 79.7092 394.255 79.4986C394.311 79.3953 394.378 79.2651 394.467 79.1271C394.548 78.98 394.66 78.8302 394.808 78.6883C394.95 78.5405 395.098 78.3665 395.288 78.2174C395.487 78.0807 395.705 77.9388 395.94 77.8028C396.195 77.706 396.462 77.5902 396.75 77.5288C397.044 77.4928 397.346 77.4261 397.65 77.4666C397.801 77.4817 397.954 77.4928 398.103 77.5163C398.249 77.551 398.391 77.5968 398.533 77.638C398.816 77.7191 399.066 77.8649 399.301 77.997C399.758 78.29 400.105 78.6425 400.344 78.9787C400.588 79.3109 400.733 79.6209 400.812 79.8465C400.894 80.0702 400.912 80.2082 400.912 80.2082Z" fill="#1F2733"/>
<path d="M393.844 80.7432C394.359 81.679 394.799 82.6483 395.197 83.6306C395.601 84.6116 395.946 85.6135 396.275 86.6213C396.435 87.1269 396.572 87.6389 396.721 88.1478C396.879 88.654 396.985 89.1765 397.108 89.6925L397.288 90.4681C397.355 90.7245 397.386 90.9913 397.434 91.2529C397.519 91.7794 397.62 92.3013 397.688 92.8297L397.762 93.3948L397.235 93.3798C396.21 93.3503 395.185 93.3019 394.159 93.2424C393.133 93.1711 392.108 93.1051 391.082 92.9815C392.105 92.8356 393.129 92.7467 394.153 92.6532C395.176 92.5721 396.2 92.5008 397.225 92.4485L396.772 92.9985C396.496 91.9874 396.267 90.9737 395.995 89.962L395.608 88.4421C395.479 87.9346 395.338 87.4303 395.219 86.9195L394.837 85.3924L394.476 83.8562C394.248 82.8281 394.02 81.7981 393.844 80.7432Z" fill="#542E2B"/>
<path d="M374.775 92.1921C374.526 92.0397 374.3 91.85 374.096 91.6322C373.894 91.4151 373.7 91.1685 373.594 90.8579C373.542 90.7049 373.499 90.5348 373.513 90.3569C373.511 90.2673 373.52 90.1784 373.552 90.0921C373.578 90.0051 373.6 89.9142 373.651 89.8416C373.733 89.6761 373.848 89.5486 373.972 89.4289C374.094 89.3086 374.233 89.2281 374.369 89.132L374.205 89.374C374.24 88.7167 374.253 88.0431 374.237 87.3865C374.212 86.737 374.174 86.0575 373.976 85.5147C373.926 85.3852 373.862 85.2688 373.793 85.1975C373.721 85.1289 373.664 85.0994 373.562 85.0949L373.48 85.1027L373.459 85.104C373.486 85.0948 373.447 85.1066 373.447 85.1066L373.386 85.1243C373.308 85.1485 373.215 85.1694 373.149 85.1969C373.023 85.2466 372.894 85.3094 372.764 85.3891C372.644 85.4755 372.529 85.5729 372.432 85.6906C372.336 85.8084 372.24 85.9352 372.174 86.0811C372.032 86.3682 371.959 86.6991 371.933 87.0392C371.845 86.7063 371.846 86.346 371.928 85.9954C371.965 85.8182 372.035 85.6455 372.124 85.4801C372.218 85.3172 372.34 85.1707 372.477 85.0353C372.617 84.9085 372.776 84.7947 372.961 84.7038C373.048 84.658 373.12 84.6344 373.2 84.5985L373.258 84.5736C373.276 84.5671 373.26 84.571 373.306 84.556L373.348 84.5455C373.403 84.5324 373.458 84.5174 373.516 84.5082C373.753 84.4677 374.044 84.5612 374.22 84.7247C374.402 84.8843 374.508 85.0687 374.595 85.2472C374.764 85.6063 374.832 85.9653 374.883 86.3178C374.932 86.671 374.962 87.0209 374.963 87.3695C374.974 88.0673 374.927 88.7501 374.831 89.4413L374.811 89.5859L374.667 89.6833C374.568 89.7507 374.443 89.7978 374.353 89.871C374.26 89.9423 374.172 90.0169 374.114 90.1078C374.072 90.1483 374.06 90.1993 374.038 90.2471C374.011 90.2941 373.994 90.3452 373.988 90.4007C373.958 90.5067 373.968 90.629 373.987 90.7506C374.033 90.9946 374.133 91.2562 374.278 91.4955C374.419 91.7382 374.589 91.9684 374.775 92.1921Z" fill="#542E2B"/>
<path d="M385.581 95.6648C385.581 95.6648 392.397 101.72 397.668 95.8329L385.581 95.6648Z" fill="white"/>
<path d="M384.432 85.4977C384.432 85.4977 384.419 85.3538 384.415 85.1021C384.413 84.8503 384.419 84.4899 384.485 84.0576C384.552 83.6266 384.658 83.1146 384.955 82.5946C385.103 82.3402 385.295 82.0642 385.6 81.8693C385.745 81.7712 385.918 81.6862 386.098 81.6437C386.2 81.6254 386.254 81.5927 386.398 81.5914L386.608 81.5829C386.991 81.6058 387.375 81.7483 387.634 81.9622C387.902 82.1734 388.1 82.4357 388.241 82.6908C388.533 83.2035 388.656 83.7123 388.728 84.1433C388.802 84.5749 388.808 84.9379 388.804 85.1897C388.8 85.4421 388.782 85.586 388.782 85.586C388.782 85.586 388.73 85.4519 388.641 85.2178C388.552 84.9856 388.428 84.6554 388.267 84.2754C388.102 83.8994 387.9 83.4644 387.622 83.0864C387.492 82.887 387.316 82.7398 387.153 82.6077C387.065 82.5501 386.978 82.4972 386.884 82.4697C386.779 82.4279 386.746 82.435 386.626 82.4161L386.415 82.4174C386.417 82.4076 386.336 82.4337 386.301 82.4377C386.208 82.4534 386.121 82.4933 386.037 82.5456C385.869 82.645 385.704 82.8013 385.572 82.9909C385.296 83.3618 385.107 83.8058 384.946 84.1832C384.637 84.9719 384.432 85.4977 384.432 85.4977Z" fill="#1F2733"/>
<path d="M395.604 84.7457C395.604 84.7457 395.532 84.1977 395.618 83.3717C395.664 82.959 395.746 82.4731 395.971 81.9623C396.087 81.7112 396.239 81.4391 396.496 81.2141C396.621 81.1003 396.783 81.0048 396.956 80.9401C397.062 80.9146 397.103 80.8858 397.265 80.8714L397.467 80.8629C397.877 80.8845 398.216 81.0866 398.445 81.3109C398.682 81.5405 398.817 81.8079 398.94 82.0558C399.166 82.5607 399.257 83.0453 399.308 83.458C399.409 84.2846 399.324 84.8347 399.324 84.8347C399.324 84.8347 399.145 84.3258 398.876 83.562C398.734 83.1931 398.567 82.7634 398.335 82.3671C398.219 82.1716 398.076 81.9911 397.93 81.8505C397.774 81.7125 397.615 81.6516 397.484 81.6346L397.282 81.6366C397.311 81.6333 397.225 81.6549 397.2 81.6582C397.124 81.685 397.046 81.7216 396.974 81.7844C396.831 81.906 396.683 82.0741 396.573 82.2723C396.344 82.6647 396.184 83.0996 396.047 83.4704C395.916 83.8517 395.807 84.1695 395.731 84.3919C395.651 84.6162 395.604 84.7457 395.604 84.7457Z" fill="#1F2733"/>
<path d="M232.613 97.305C232.613 97.305 225.347 94.3483 224.67 102.152C223.994 109.955 226.504 115.497 218.949 114.113C218.949 114.113 224.907 120.082 229.33 115.2C233.752 110.319 235.231 102.256 232.613 97.305Z" fill="#76413B"/>
<path d="M234.874 118.02C234.55 118.334 232.632 118.997 230.351 119.706C231.004 121.63 231.744 123.562 232.987 124.963C235.15 127.398 238.883 128.711 241.989 128.77C247.656 128.878 254.744 125.233 255.236 119.952C253.481 119.257 247.736 118.298 247.268 118.226C245.641 117.977 246.333 106.487 246.333 106.487L233.77 105.039C233.77 105.039 235.745 117.175 234.874 118.02Z" fill="#FFA099"/>
<path d="M246.986 118.049C242.774 117.917 238.632 117.331 235.066 115.569C234.868 111.786 233.251 101.848 233.251 101.848L246.333 106.487C246.333 106.487 245.726 116.567 246.986 118.049Z" fill="#FF8680"/>
<path d="M233.256 83.0236C233.256 83.0236 237.383 74.2927 246.829 76.7171C256.276 79.1415 257.152 88.8514 257.865 97.3488C258.579 105.846 255.419 113.299 247.882 113.775C241.334 114.189 230.043 112.252 233.256 83.0236Z" fill="#FFA099"/>
<path d="M233.144 92.848C233.144 92.848 232.664 91.2509 230.206 92.8402C227.089 94.8558 229.676 103.061 233.339 102.445C237.002 101.829 233.144 92.848 233.144 92.848Z" fill="#FFA099"/>
<path d="M231.169 74.6681C231.37 74.6256 235.546 75.9532 232.533 76.0742C235.102 79.2239 234.209 76.2573 237.969 77.1958C239.607 83.4971 238.82 86.3656 235.421 91.2935C236.211 96.8459 233.799 98.3612 233.799 98.3612C233.799 98.3612 234.166 93.0756 231.992 92.6171C228.466 91.8742 228.931 97.4325 228.931 97.4325C222.721 92.6204 221.246 76.7818 231.169 74.6681Z" fill="#76413B"/>
<path d="M236.586 81.0864C236.586 81.0864 244.922 88.043 258.772 83.3571L257.359 82.1289L259.606 83.2041C259.606 83.2041 258.179 70.4576 244.457 68.7088C233.847 67.357 230.379 76.46 230.379 76.46L236.586 81.0864Z" fill="#76413B"/>
<path d="M247.234 89.7173C247.234 89.7173 247.093 89.6559 246.849 89.5669C246.608 89.4734 246.264 89.3524 245.859 89.2268C245.656 89.1634 245.435 89.1059 245.205 89.0483C244.978 88.9777 244.726 88.9613 244.481 88.8998C244.227 88.8835 243.973 88.8181 243.711 88.822L243.319 88.8017L242.925 88.822C242.66 88.8122 242.405 88.8822 242.146 88.9077C241.888 88.9423 241.646 89.0319 241.398 89.0797C241.156 89.1484 240.929 89.2445 240.703 89.3158C240.475 89.3858 240.283 89.5087 240.085 89.5859C239.894 89.6781 239.702 89.7428 239.555 89.8377C239.404 89.926 239.263 89.9959 239.147 90.0561C238.914 90.1738 238.77 90.2366 238.77 90.2366C238.77 90.2366 238.847 90.1078 239 89.8906C239.078 89.7834 239.171 89.6493 239.289 89.5048C239.397 89.3491 239.554 89.2098 239.726 89.0561C239.903 88.909 240.074 88.7115 240.31 88.5833C240.54 88.4466 240.775 88.2759 241.047 88.1569C241.325 88.0549 241.607 87.9149 241.917 87.8521C242.227 87.79 242.542 87.7102 242.864 87.7109L243.346 87.6991L243.819 87.7488C244.135 87.7691 244.428 87.8763 244.716 87.9437C244.992 88.0496 245.262 88.1412 245.496 88.2733C245.738 88.3865 245.952 88.5225 246.14 88.6566C246.522 88.9168 246.798 89.1863 246.975 89.3864C247.155 89.5852 247.234 89.7173 247.234 89.7173Z" fill="#1F2733"/>
<path d="M257.03 90.0077C257.03 90.0077 256.613 89.7245 256.03 89.3883C255.88 89.3098 255.724 89.2216 255.556 89.1424C255.394 89.0522 255.208 88.9972 255.032 88.9181C254.848 88.8632 254.664 88.7886 254.474 88.7553C254.379 88.7363 254.283 88.7212 254.189 88.6964L253.901 88.6768C253.709 88.6375 253.518 88.6925 253.326 88.6846C253.132 88.7186 252.942 88.752 252.757 88.7847C252.577 88.852 252.393 88.9031 252.215 88.9547C252.041 89.0286 251.877 89.0993 251.725 89.164C251.568 89.2268 251.42 89.287 251.298 89.3582C251.174 89.4263 251.058 89.4779 250.962 89.523C250.769 89.6107 250.648 89.6571 250.648 89.6571C250.648 89.6571 250.701 89.5466 250.812 89.3609C250.869 89.2693 250.936 89.1548 251.025 89.0319C251.106 88.9004 251.215 88.769 251.355 88.6434C251.49 88.5133 251.632 88.3583 251.811 88.2301C251.996 88.1104 252.196 87.9803 252.412 87.8606C252.646 87.7769 252.89 87.6748 253.151 87.6199C253.418 87.5905 253.692 87.529 253.967 87.5669C254.104 87.5807 254.242 87.5905 254.377 87.6108C254.509 87.6421 254.639 87.6827 254.768 87.7187C255.026 87.7899 255.254 87.9201 255.47 88.0372C255.889 88.302 256.218 88.612 256.45 88.9103C256.922 89.5047 257.03 90.0077 257.03 90.0077Z" fill="#1F2733"/>
<path d="M249.891 90.2372C250.181 90.9088 250.433 91.5772 250.679 92.245L251.393 94.2384C251.519 94.5654 251.62 94.9015 251.747 95.2259L252.11 96.2056L252.5 97.1683C252.621 97.4946 252.784 97.7948 252.913 98.1172L253.044 98.4475L252.853 98.6306C252.357 99.1061 251.848 99.5698 251.332 100.026C250.807 100.476 250.286 100.927 249.725 101.343C250.101 100.755 250.516 100.204 250.928 99.6495C251.347 99.1028 251.775 98.5633 252.215 98.0355L252.155 98.5495C251.949 98.2435 251.76 97.923 251.589 97.598C251.402 97.2781 251.267 96.9381 251.116 96.6045C250.979 96.2664 250.835 95.9296 250.73 95.5817C250.614 95.2364 250.504 94.8911 250.411 94.5399C250.229 93.8375 250.085 93.1279 249.992 92.4098C249.902 91.6936 249.849 90.969 249.891 90.2372Z" fill="#D16D6D"/>
<path d="M232.55 100.763C232.323 100.614 232.116 100.432 231.931 100.226C231.747 100.02 231.572 99.7889 231.482 99.5031C231.438 99.3625 231.403 99.2081 231.418 99.0492C231.417 98.9688 231.428 98.8903 231.456 98.8131C231.479 98.736 231.498 98.6549 231.544 98.5895C231.618 98.4416 231.722 98.3266 231.834 98.2186C231.944 98.1094 232.072 98.0362 232.196 97.9492L232.073 98.1303C232.111 97.5117 232.127 96.8806 232.113 96.2619C232.09 95.6491 232.055 95.0108 231.859 94.4856C231.754 94.2207 231.612 94.0527 231.41 94.0585L231.325 94.0677L231.303 94.0697C231.349 94.0513 231.303 94.069 231.303 94.069L231.246 94.0893L231.022 94.1704L230.799 94.2521L230.638 94.3725L230.469 94.4921L230.333 94.6609C230.225 94.7642 230.165 94.9009 230.093 95.0337C230.026 95.1684 229.985 95.3195 229.948 95.4692C229.919 95.6216 229.888 95.7773 229.887 95.9375C229.852 95.7818 229.835 95.6196 229.84 95.4568C229.849 95.2959 229.863 95.1285 229.909 94.9689C229.961 94.8106 229.999 94.6413 230.104 94.5026L230.246 94.2855C230.308 94.2227 230.378 94.1638 230.446 94.103L230.655 93.9251L230.869 93.8185L231.083 93.7132L231.136 93.6871C231.158 93.6786 231.127 93.6871 231.191 93.6655L231.227 93.6563C231.277 93.6452 231.325 93.6308 231.377 93.6243C231.586 93.5883 231.837 93.672 231.991 93.8166C232.15 93.9578 232.245 94.1246 232.323 94.2868C232.473 94.6144 232.536 94.946 232.583 95.2724C232.627 95.6 232.653 95.9251 232.656 96.2494C232.666 96.8989 232.626 97.5372 232.541 98.1807L232.528 98.2873L232.419 98.3625C232.323 98.4292 232.204 98.475 232.115 98.5469C232.024 98.6176 231.938 98.6921 231.881 98.7843C231.84 98.8255 231.827 98.8772 231.805 98.9263C231.778 98.9747 231.764 99.027 231.76 99.0826C231.735 99.1898 231.749 99.3089 231.771 99.4259C231.824 99.6601 231.923 99.904 232.065 100.126C232.205 100.348 232.37 100.56 232.55 100.763Z" fill="#D16D6D"/>
<path d="M240.707 93.85C240.728 95.0971 241.086 96.1023 241.506 96.0951C241.927 96.0879 242.25 95.0716 242.229 93.8244C242.208 92.5773 241.851 91.5721 241.43 91.5793C241.009 91.5865 240.686 92.6028 240.707 93.85Z" fill="#1F2733"/>
<path d="M251.552 93.2444C251.573 94.4915 251.931 95.4967 252.351 95.4895C252.771 95.4823 253.095 94.466 253.074 93.2189C253.053 91.9717 252.695 90.9665 252.274 90.9737C251.855 90.9802 251.531 91.9972 251.552 93.2444Z" fill="#1F2733"/>
<path d="M243.432 103.776C243.432 103.776 249.265 108.316 253.268 103.332L243.432 103.776Z" fill="white"/>
<path d="M223.74 79.5476C223.74 79.5476 245.529 82.0145 253.877 72.4288C253.877 72.4288 250.173 21.012 247.243 15.3935C247.243 15.3935 224.469 10.5813 211.906 22.5999L223.74 79.5476Z" fill="white"/>
<path opacity="0.1" d="M250.844 59.6523C231.295 55.3195 219.436 38.7687 214.463 20.4777C213.575 21.1199 212.719 21.8236 211.907 22.6005L223.74 79.5483C223.74 79.5483 245.53 82.0151 253.877 72.4295C253.877 72.4295 253.506 67.2746 252.906 60.0538C252.22 59.9361 251.533 59.8046 250.844 59.6523Z" fill="#061B38"/>
<path d="M232.089 290.253L231.477 303.98C231.477 303.98 193.802 318.765 223.604 302.091L224.029 279.846L232.089 290.253Z" fill="#DFA040"/>
<path d="M222.474 301.682L223.877 303.842L232.298 300.971L232.353 304.246C232.353 304.246 190.018 321.335 222.474 301.682Z" fill="white"/>
<path d="M252.787 284.796L253.621 304.382C253.621 304.382 294.382 315.82 261.821 302.067L260.64 274.42L252.787 284.796Z" fill="#DFA040"/>
<path d="M252.544 302.541L261.322 304.577L262.91 301.548C262.91 301.548 276.449 306.63 276.047 309.569C275.645 312.509 252.26 305.231 252.26 305.231L252.544 302.541Z" fill="white"/>
<path d="M227.417 162.797C227.417 162.797 223.672 171.148 224.364 185.549C224.364 185.549 229.078 197.408 244.794 203.426C244.794 203.426 249.105 280.32 250.247 296.604C250.247 296.604 257.482 298.044 263.402 296.71C263.402 296.71 276.252 195.807 263.753 170.136L227.417 162.797Z" fill="#DFA040"/>
<path opacity="0.3" d="M227.417 162.797C227.417 162.797 223.672 171.148 224.364 185.549C224.364 185.549 229.078 197.408 244.794 203.426C244.794 203.426 249.105 280.32 250.247 296.604C250.247 296.604 257.482 298.044 263.402 296.71C263.402 296.71 276.252 195.807 263.753 170.136L227.417 162.797Z" fill="#001C28"/>
<path d="M262.323 164.311C262.323 164.311 267.065 177.171 267.629 189.571C267.629 189.571 264.176 195.301 248.3 200.886C248.3 200.886 235.2 281.674 233.611 297.92C233.611 297.92 227.594 298.908 221.714 297.411C221.714 297.411 212.756 197.584 225.998 172.633L262.323 164.311Z" fill="#DFA040"/>
<path d="M293.824 148.616L294.355 148.919L295.542 148.635L299.663 145.207L298.753 147.859H301.256C301.256 147.859 303.38 147.783 303 148.843C302.621 149.904 301.532 149.684 301.532 149.684C301.532 149.684 303.455 149.601 303.455 150.056C303.455 150.51 302.621 151.193 302.621 151.193C302.621 151.193 303.152 151.344 303.304 152.253C303.456 153.162 302.242 153.162 302.242 153.162C302.242 153.162 303 153.465 302.697 154.072C302.394 154.678 299.36 156.041 292.231 155.208C285.102 154.374 293.824 148.616 293.824 148.616Z" fill="#FFA099"/>
<path d="M296.021 154.422C295.784 152.606 295.839 150.531 295.542 148.635L290.312 149.312L292.536 155.754C292.536 155.754 294.161 155.568 296.15 155.292C296.106 155.002 296.059 154.713 296.021 154.422Z" fill="#FF8680"/>
<path d="M307.023 117.444C306.949 113.049 303.323 109.548 298.925 109.622C294.526 109.696 291.021 113.318 291.095 117.712C291.168 122.029 294.671 125.476 298.965 125.526L299.222 140.777C298.718 141.001 298.372 141.509 298.381 142.095L298.637 157.243C298.65 158.026 299.296 158.65 300.079 158.636C300.862 158.623 301.486 157.979 301.473 157.196L301.218 142.047C301.208 141.462 300.844 140.965 300.334 140.758L300.076 125.467C304.05 124.961 307.092 121.539 307.023 117.444Z" fill="#213D56"/>
<path d="M302.603 148.638C302.603 148.638 301.613 147.265 297.888 148.717C294.164 150.169 301.647 149.318 301.647 149.318L301.29 149.626C301.29 149.626 296.585 150.31 297.319 150.781C298.053 151.251 301.858 151.006 301.858 151.006C301.858 151.006 297.344 152.29 298.2 152.82C299.056 153.35 302.303 152.328 302.303 152.328C302.303 152.328 296.771 154.113 298.108 154.513C299.444 154.913 302.212 154.081 302.212 154.081C302.212 154.081 301.547 153.226 301.788 153.161C302.029 153.096 302.965 152.075 302.965 152.075L301.629 151.735L303.061 150.563L301.534 149.683L302.603 148.638Z" fill="#FFA099"/>
<path d="M294.434 147.671L273.738 149.789C273.738 149.789 270.071 128.6 267.045 123.814C264.099 119.156 257.794 117.652 249.342 118.697C248.301 117.248 251.486 123.729 252.76 126.829C254.346 130.692 262.233 160.863 265.115 162.712C267.44 164.203 286.597 160.137 295.266 156.393C294.766 153.49 294.459 150.579 294.434 147.671Z" fill="white"/>
<path opacity="0.1" d="M294.435 147.672L273.738 149.789C273.738 149.789 272.085 140.245 270.084 132.52C268.489 134.243 266.841 135.899 265.188 137.485C262.851 139.727 260.436 141.886 257.989 144.01C260.648 152.777 263.586 161.731 265.115 162.712C267.44 164.203 286.598 160.137 295.266 156.394C294.766 153.49 294.459 150.579 294.435 147.672Z" fill="#061B38"/>
<path d="M221.657 137.663L227.786 152.902C227.786 152.902 214.779 185.158 215.778 217.63C215.778 217.63 223.125 224.726 254.734 224.194L255.051 189.444L258.79 223.675C258.79 223.675 269.161 222.598 275.001 220.694C275.001 220.694 270.654 150.376 260.646 119.409L253.33 118.701L252.431 114.359L240.476 114.95L240.602 116.024L231.67 115.385L231.528 118.826L222.738 121.401L221.657 137.663Z" fill="white"/>
<path opacity="0.1" d="M269.541 172.349C257.208 168.37 244.005 162.063 235.338 152.117C228.92 144.753 224.692 135.51 222.442 125.847L221.657 137.663L227.786 152.901C227.786 152.901 214.779 185.157 215.778 217.629C215.778 217.629 223.125 224.725 254.734 224.193L255.051 189.444L258.79 223.674C258.79 223.674 269.161 222.597 275.001 220.694C275.001 220.694 273.595 197.963 270.543 172.659C270.209 172.555 269.873 172.457 269.541 172.349Z" fill="#061B38"/>
<path d="M231.67 115.385L247.039 116.029C247.039 116.029 258.198 188.489 254.734 224.195" stroke="#213D56" stroke-width="1.0348" stroke-miterlimit="10"/>
<path d="M247.543 137.566C247.552 138.08 247.142 138.503 246.627 138.512C246.113 138.521 245.689 138.111 245.68 137.597C245.671 137.083 246.081 136.66 246.596 136.651C247.11 136.643 247.534 137.052 247.543 137.566Z" fill="#DFA040"/>
<path d="M249.065 152.544C249.074 153.058 248.664 153.481 248.15 153.489C247.635 153.498 247.211 153.088 247.202 152.574C247.194 152.06 247.604 151.637 248.118 151.628C248.633 151.619 249.057 152.03 249.065 152.544Z" fill="#DFA040"/>
<path d="M250.428 168.06C250.436 168.574 250.026 168.997 249.512 169.006C248.997 169.015 248.574 168.605 248.565 168.091C248.556 167.577 248.966 167.154 249.48 167.145C249.995 167.136 250.419 167.546 250.428 168.06Z" fill="#DFA040"/>
<path d="M250.984 187.679C250.993 188.193 250.583 188.616 250.069 188.626C249.554 188.634 249.13 188.225 249.121 187.711C249.113 187.197 249.523 186.773 250.037 186.764C250.552 186.756 250.976 187.165 250.984 187.679Z" fill="#DFA040"/>
<path d="M240.602 116.024L240.468 114.785L252.431 114.359" stroke="#213D56" stroke-width="1.0348" stroke-miterlimit="10"/>
<path d="M221.298 196.309C221.298 196.309 232.13 219.686 226.058 203.468C226.058 203.468 232.761 216.844 227.579 203.248C227.579 203.248 234.314 216.929 229.166 202.467C229.166 202.467 235.474 215.02 229.958 199.978C229.958 199.978 240.718 201.269 229.16 197.653L226.884 192.397L221.298 196.309Z" fill="#FFA099"/>
<path d="M232.634 118.979C232.634 118.979 219.58 119.73 216.441 122.974C213.301 126.218 207.205 150.18 208.811 163.592C210.05 173.941 219.429 193.46 221.115 198.75C221.115 198.75 225.116 199.214 229.847 195.678C229.847 195.678 220.306 163.188 220.718 159.403C221.13 155.619 228.803 133.741 228.803 133.741L232.634 118.979Z" fill="white"/>
<path d="M118.239 106.357C117.144 105.278 120.582 88.389 120.582 88.389L103.902 91.7074C103.902 91.7074 102.997 104.005 100.933 114.707C109.092 118.6 118.31 115.338 124.899 109.327C121.561 108.004 118.67 106.783 118.239 106.357Z" fill="#D88971"/>
<path d="M91.4785 76.5235L98.6661 75.859" stroke="#DFA040" stroke-miterlimit="10"/>
<path d="M126.785 70.9619C126.785 70.9619 129.599 60.237 112.114 57.3345C100.78 55.453 96.763 71.5087 94.3309 80.2265C91.8988 88.9443 92.5319 99.2638 103.036 100.984C110.911 102.273 120.637 106.112 126.785 70.9619Z" fill="#F19C7C"/>
<path d="M124.561 80.8818C124.561 80.8818 125.38 79.3082 127.742 81.4475C130.737 84.1609 126.397 92.2208 122.549 90.8625C118.701 89.5035 124.561 80.8818 124.561 80.8818Z" fill="#F19C7C"/>
<path d="M121.265 65.1374C121.265 65.1374 115.977 73.7074 122.441 78.6379L120.09 85.7992L122.558 86.8554C122.558 86.8554 123.616 78.2854 127.024 80.868C127.024 80.868 131.372 72.6505 132.194 67.2498C133.017 61.8504 121.265 65.1374 121.265 65.1374Z" fill="#352C38"/>
<path d="M98.936 64.8457C100.245 64.8457 109.411 71.3857 129.487 75.746L134.939 64.4893C134.939 64.4893 143.017 68.7704 147.818 62.666C152.619 56.5622 153.197 36.8251 132.033 39.5595C132.033 39.5595 120.322 19.502 103.301 30.8377C86.2794 42.1735 105.483 51.3295 105.483 51.3295L98.936 64.8457Z" fill="white"/>
<path opacity="0.1" d="M121.631 53.0737C115.121 53.5557 109.812 53.3686 105.405 51.4904L98.9365 64.8457C100.246 64.8457 109.411 71.3857 129.488 75.7459L134.94 64.4893C127.843 59.908 121.631 53.0737 121.631 53.0737Z" fill="#061B38"/>
<path d="M107.726 73.1882C107.726 73.1882 107.836 73.0476 108.073 72.8585C108.19 72.7604 108.339 72.6532 108.518 72.5407C108.7 72.438 108.904 72.3046 109.147 72.2137C109.385 72.1064 109.651 72.0025 109.943 71.9299C110.233 71.8383 110.553 71.8076 110.884 71.7585C111.217 71.7539 111.568 71.7114 111.921 71.7696C112.098 71.7919 112.278 71.8082 112.456 71.8383L112.984 71.9776C113.339 72.0659 113.668 72.234 113.989 72.3896C114.314 72.5407 114.585 72.7748 114.86 72.9665C115.125 73.1731 115.335 73.4256 115.545 73.6427C115.762 73.8546 115.886 74.124 116.031 74.3385C116.169 74.5589 116.292 74.7591 116.358 74.9644C116.438 75.1593 116.491 75.3372 116.537 75.4798C116.626 75.7669 116.654 75.9363 116.654 75.9363C116.654 75.9363 116.493 75.8486 116.25 75.6858C116.129 75.6034 115.98 75.5086 115.829 75.3895C115.682 75.2659 115.478 75.1672 115.29 75.0364C115.087 74.9219 114.904 74.7591 114.671 74.6512C114.443 74.5367 114.228 74.3876 113.987 74.2738C113.739 74.1757 113.508 74.0318 113.25 73.9416C112.99 73.8592 112.747 73.7277 112.474 73.6741L112.08 73.5531C111.944 73.5315 111.811 73.4968 111.676 73.4681C111.411 73.3922 111.136 73.3857 110.872 73.3248C110.604 73.3118 110.341 73.2542 110.086 73.2503C109.831 73.23 109.584 73.2097 109.353 73.2045C108.891 73.1914 108.485 73.1836 108.195 73.1862C107.896 73.1875 107.726 73.1882 107.726 73.1882Z" fill="#352C38"/>
<path d="M97.0967 71.5565C97.0967 71.5565 97.2865 71.0058 97.9065 70.4238C98.2155 70.1353 98.6365 69.8528 99.1523 69.6461C99.4162 69.5631 99.6931 69.4598 99.9942 69.4375C100.144 69.4231 100.295 69.4042 100.449 69.397L100.911 69.4329C101.223 69.4486 101.514 69.5703 101.803 69.6586C102.081 69.7717 102.33 69.9339 102.57 70.0752C102.784 70.2518 102.98 70.4323 103.157 70.6043C103.323 70.7867 103.446 70.9849 103.565 71.1575C103.687 71.3295 103.775 71.4989 103.833 71.6618C103.901 71.8168 103.945 71.9593 103.984 72.0738C104.059 72.304 104.083 72.4413 104.083 72.4413C104.083 72.4413 103.948 72.3799 103.742 72.2628C103.64 72.2033 103.515 72.1353 103.387 72.0483C103.262 71.958 103.105 71.8776 102.94 71.7939C102.775 71.7102 102.615 71.6016 102.437 71.5127C102.253 71.4355 102.07 71.3518 101.889 71.2576C101.692 71.2046 101.505 71.1268 101.312 71.0679C101.111 71.0464 100.925 70.9535 100.721 70.9587L100.422 70.9208C100.321 70.928 100.22 70.9228 100.119 70.9221C99.9163 70.9103 99.7121 70.9522 99.5078 70.9594C99.1032 71.0182 98.7026 71.0993 98.3484 71.1935C97.9936 71.2857 97.6813 71.3766 97.4587 71.4466C97.2283 71.5166 97.0967 71.5565 97.0967 71.5565Z" fill="#352C38"/>
<path d="M103.395 75.3601C103.296 75.8722 103.169 76.3738 103.048 76.8787C102.932 77.3849 102.797 77.8839 102.663 78.3836C102.39 79.3816 102.095 80.3717 101.786 81.3573C101.636 81.8517 101.465 82.3389 101.306 82.8301C101.148 83.3219 100.979 83.8098 100.805 84.2957C100.469 85.2721 100.107 86.2394 99.7344 87.204L99.5099 86.7541C100.212 87.0177 100.912 87.293 101.607 87.5788C102.296 87.8822 102.994 88.1615 103.674 88.4937C102.929 88.3584 102.202 88.1694 101.467 88.0052C100.737 87.8234 100.011 87.6305 99.2886 87.4264L98.958 87.3329L99.0634 86.9758C99.3567 85.985 99.6611 84.9975 99.9904 84.0191C100.15 83.5279 100.314 83.0381 100.489 82.5521C100.663 82.0662 100.825 81.5757 101.008 81.0924C101.365 80.1232 101.736 79.1585 102.129 78.2011C102.328 77.723 102.525 77.2449 102.743 76.7734C102.955 76.3019 103.161 75.8258 103.395 75.3601Z" fill="#FC6A5A"/>
<path d="M123.72 89.2602C123.95 89.0823 124.168 88.892 124.361 88.686C124.554 88.4806 124.711 88.2452 124.806 88.0098C124.851 87.8921 124.884 87.7711 124.875 87.6573C124.882 87.5997 124.872 87.5441 124.854 87.4905C124.842 87.4362 124.835 87.3819 124.8 87.3329C124.758 87.2282 124.678 87.1367 124.596 87.0464C124.564 86.9974 124.501 86.9634 124.455 86.9215L124.308 86.7992L124.198 86.707L124.204 86.5683C124.232 85.8718 124.309 85.1917 124.445 84.5076C124.509 84.1656 124.601 83.8268 124.714 83.4893C124.827 83.1532 124.966 82.8144 125.197 82.4985C125.317 82.3429 125.462 82.1865 125.669 82.0786C125.874 81.9655 126.15 81.9491 126.361 82.025C126.587 82.1087 126.708 82.2075 126.859 82.3056C127.021 82.4213 127.157 82.5554 127.275 82.6993C127.388 82.8504 127.485 83.0112 127.555 83.1839C127.618 83.3585 127.661 83.5377 127.672 83.7176C127.701 84.0753 127.646 84.4304 127.507 84.7443C127.551 84.4062 127.541 84.0661 127.453 83.7555C127.413 83.5992 127.341 83.456 127.267 83.3206C127.189 83.1859 127.091 83.0675 126.985 82.9596C126.868 82.8562 126.749 82.768 126.628 82.6941C126.488 82.6188 126.322 82.5286 126.222 82.509C126.006 82.4625 125.836 82.5842 125.668 82.8314C125.358 83.3311 125.193 83.9942 125.053 84.6332C124.92 85.28 124.817 85.9477 124.741 86.6043L124.636 86.3741L124.812 86.5415C124.867 86.6017 124.931 86.6468 124.976 86.722C125.076 86.8574 125.172 86.9954 125.225 87.1681C125.264 87.2466 125.275 87.3361 125.284 87.4251C125.301 87.5134 125.3 87.601 125.282 87.688C125.266 87.8633 125.197 88.0222 125.119 88.1621C124.96 88.4466 124.727 88.6533 124.488 88.8312C124.249 89.0071 123.992 89.153 123.72 89.2602Z" fill="#FC6A5A"/>
<path d="M108.124 81.6084C108.124 81.6084 108.14 81.4613 108.18 81.2082C108.209 81.0826 108.21 80.9276 108.279 80.7576C108.345 80.5856 108.422 80.3855 108.522 80.169C108.653 79.9806 108.779 79.7524 108.967 79.5542C109.167 79.3678 109.369 79.1461 109.653 79.0134C109.913 78.8453 110.233 78.7498 110.556 78.6857C110.722 78.6726 110.891 78.6504 111.061 78.6504L111.57 78.7223C111.735 78.7688 111.894 78.84 112.054 78.9009C112.214 78.963 112.345 79.082 112.487 79.1723C112.635 79.2573 112.732 79.4005 112.844 79.5196C112.961 79.6373 113.047 79.7727 113.117 79.9146C113.295 80.1807 113.349 80.4783 113.415 80.7471C113.462 81.0179 113.446 81.2788 113.445 81.5097C113.407 81.7392 113.361 81.9446 113.321 82.1231C113.279 82.301 113.194 82.4429 113.147 82.5633C113.039 82.8 112.971 82.9269 112.971 82.9269C112.971 82.9269 112.968 82.7745 112.974 82.5234C112.972 82.3978 112.993 82.2487 112.982 82.0793C112.963 81.9086 112.943 81.7216 112.933 81.5221C112.878 81.3285 112.838 81.1179 112.77 80.9139C112.676 80.717 112.597 80.5077 112.452 80.3344C112.394 80.2383 112.324 80.15 112.233 80.082C112.144 80.0133 112.079 79.9159 111.973 79.8688C111.788 79.7373 111.575 79.6549 111.355 79.5869L111.015 79.532L110.669 79.5411C110.445 79.5817 110.207 79.602 110.004 79.7131C109.786 79.7884 109.604 79.925 109.416 80.0421C109.243 80.1755 109.096 80.3331 108.94 80.462C108.824 80.617 108.703 80.7576 108.593 80.8877C108.485 81.0185 108.418 81.167 108.347 81.2703C108.209 81.4874 108.124 81.6084 108.124 81.6084Z" fill="#1F2136"/>
<path d="M96.3237 79.2737C96.3237 79.2737 96.3388 79.1291 96.3787 78.8813C96.4056 78.7583 96.4115 78.6059 96.4723 78.4385C96.5352 78.2698 96.6092 78.0742 96.7041 77.8617C96.8206 77.6681 96.9516 77.4536 97.1205 77.2476C97.3162 77.0664 97.4982 76.8336 97.7751 76.6976C98.0252 76.5262 98.3322 76.417 98.6504 76.3438L99.148 76.298L99.654 76.3608C99.8183 76.4039 99.9755 76.4785 100.133 76.54C100.289 76.6067 100.419 76.7218 100.559 76.8133C100.707 76.8977 100.794 77.0468 100.904 77.1645C101.019 77.2822 101.09 77.4242 101.159 77.5628C101.328 77.8283 101.361 78.1252 101.425 78.3875C101.45 78.6543 101.446 78.9087 101.429 79.1331C101.39 79.3567 101.342 79.5575 101.301 79.7308C101.253 79.9035 101.174 80.0428 101.126 80.1598C101.018 80.3914 100.951 80.5156 100.951 80.5156C100.951 80.5156 100.949 80.3665 100.957 80.1199C100.957 79.9963 100.975 79.8498 100.971 79.6831C100.955 79.515 100.937 79.3306 100.929 79.1337C100.891 78.9401 100.841 78.7354 100.791 78.5281C100.698 78.3352 100.636 78.12 100.497 77.9487C100.393 77.7531 100.21 77.6177 100.047 77.4791C99.9506 77.4274 99.8694 77.3483 99.7653 77.3117C99.6593 77.2803 99.5591 77.2325 99.453 77.2064L99.1237 77.1521L98.7872 77.1717C98.5705 77.2247 98.3408 77.2515 98.1437 77.3673C97.9303 77.4444 97.7601 77.5962 97.5741 77.71C97.4124 77.8623 97.2593 78.0062 97.1185 78.139C97.0052 78.2933 96.8874 78.4333 96.7807 78.5628C96.6786 78.6962 96.6105 78.8381 96.5411 78.9408C96.4075 79.1553 96.3237 79.2737 96.3237 79.2737Z" fill="#1F2136"/>
<path d="M99.1714 91.0823C99.1714 91.0823 99.83 91.5093 100.847 92.0168C101.105 92.1365 101.378 92.2745 101.676 92.3968C101.968 92.5328 102.29 92.6388 102.616 92.7617C102.94 92.8873 103.293 92.9599 103.638 93.0685C103.993 93.1293 104.346 93.247 104.711 93.2614L105.253 93.3301C105.434 93.3445 105.615 93.3346 105.793 93.3386C105.972 93.3314 106.151 93.3549 106.326 93.336C106.5 93.3183 106.673 93.3006 106.843 93.283C107.188 93.266 107.508 93.1744 107.82 93.111C108.135 93.0567 108.42 92.9593 108.684 92.8631C108.944 92.7617 109.206 92.7081 109.412 92.6035C109.623 92.506 109.807 92.4204 109.959 92.3504C110.273 92.2163 110.453 92.1391 110.453 92.1391C110.453 92.1391 110.314 92.2719 110.055 92.4962C109.922 92.6068 109.761 92.7415 109.577 92.8958C109.392 93.0534 109.145 93.1705 108.889 93.3229C108.758 93.3968 108.622 93.4739 108.481 93.5537C108.337 93.6303 108.174 93.6721 108.014 93.7362C107.689 93.8507 107.348 94.0011 106.969 94.0449C106.596 94.1149 106.208 94.1999 105.806 94.1848C105.606 94.1862 105.403 94.2005 105.202 94.1901L104.597 94.1299C104.189 94.0992 103.805 93.9645 103.416 93.884C103.04 93.763 102.671 93.6329 102.331 93.4766C101.645 93.1731 101.056 92.7964 100.583 92.4419C99.6316 91.7297 99.1714 91.0823 99.1714 91.0823Z" fill="#FC6A5A"/>
<path d="M91.4785 76.5236C90.9221 79.3352 92.7525 82.0656 95.5676 82.6215C98.382 83.1774 101.115 81.3488 101.672 78.5366C102.228 75.7251 100.397 72.9946 97.5827 72.4387C94.7683 71.8828 92.035 73.7121 91.4785 76.5236Z" stroke="#DFA040" stroke-miterlimit="10"/>
<path d="M104.642 80.5065C104.086 83.3187 105.916 86.0485 108.731 86.6044C111.546 87.1603 114.279 85.3318 114.835 82.5196C115.392 79.708 113.561 76.9776 110.746 76.4217C107.931 75.8658 105.199 77.695 104.642 80.5065Z" stroke="#DFA040" stroke-miterlimit="10"/>
<path d="M101.298 79.7832C101.298 79.7832 103.547 77.5674 104.642 80.5065" stroke="#DFA040" stroke-miterlimit="10"/>
<path d="M123.263 82.8642L114.684 82.0427" stroke="#DFA040" stroke-miterlimit="10"/>
<path d="M81.2892 282.846L80.0395 305.604C80.0395 305.604 41.4311 313.536 72.825 302.36L75.3553 271.185L81.2892 282.846Z" fill="#DFA040"/>
<path d="M71.8128 301.759L72.7856 304.132L81.3415 302.786L80.8334 306.019C80.8334 306.019 37.3675 315.4 71.8128 301.759Z" fill="#DFA040"/>
<path d="M113.541 282.846L114.79 305.604C114.79 305.604 153.399 313.536 122.005 302.36L119.474 271.185L113.541 282.846Z" fill="#DFA040"/>
<path d="M123.016 301.759L122.043 304.132L113.487 302.786L113.995 306.019C113.995 306.019 157.461 315.4 123.016 301.759Z" fill="#DFA040"/>
<path d="M83.191 164.311C83.191 164.311 78.5789 177.171 78.0303 189.571C78.0303 189.571 81.3881 195.301 96.831 200.886C96.831 200.886 106.476 281.86 108.021 298.107C108.021 298.107 120.131 298.731 125.852 297.235C125.852 297.235 129.672 196.955 122.031 169.923L83.191 164.311Z" fill="white"/>
<path d="M117.145 162.797C117.145 162.797 120.787 171.148 120.114 185.549C120.114 185.549 115.529 197.408 100.241 203.426C100.241 203.426 90.1907 276.306 85.521 296.362C85.521 296.362 74.298 297.696 68.5396 296.362C68.5396 296.362 69.6427 195.807 81.8005 170.136L117.145 162.797Z" fill="white"/>
<path opacity="0.1" d="M75.8402 192.622C69.2536 231.452 68.54 296.362 68.54 296.362C74.2985 297.696 85.5214 296.362 85.5214 296.362C89.5856 278.908 97.7225 221.462 99.7663 206.843C90.9742 203.455 82.9198 199.072 75.8402 192.622Z" fill="#061B38"/>
<path d="M127.741 170.817C127.741 170.817 139.703 159.243 145.522 164.798C151.341 170.354 127.741 170.817 127.741 170.817Z" stroke="#DFA040" stroke-width="2" stroke-miterlimit="10"/>
<path d="M126.954 171.145C126.954 171.145 140.557 177.451 145.441 173.164C150.324 168.877 126.954 171.145 126.954 171.145Z" stroke="#DFA040" stroke-width="2" stroke-miterlimit="10"/>
<path d="M138.652 200.878C138.652 200.878 136.907 180.386 129.924 171.665C129.924 171.665 135.598 191.285 132.979 205.673" stroke="#DFA040" stroke-width="2" stroke-miterlimit="10"/>
<path d="M35.7139 107.018C35.7139 107.018 16.6369 77.6393 30.9165 96.3633C30.9165 96.3633 20.3672 78.9728 32.271 94.7734C32.271 94.7734 21.3938 77.1259 34.3202 93.5158C34.3202 93.5158 24.4334 77.1749 37.7598 94.4085C37.7598 94.4085 44.0655 81.1081 39.8586 97.0081L44.2639 103.431L35.7139 107.018Z" fill="#F19C7C"/>
<path d="M95.6623 120.545C95.947 116.796 95.894 113.029 96.1009 109.275C96.167 108.078 96.2338 106.803 96.3346 105.493C89.6105 105.747 82.002 106.184 79.1791 106.906C73.6936 108.31 58.7358 118.1 58.7358 118.1L44.5806 99.4384L31.5566 105.853C31.5566 105.853 48.8274 133.274 52.2585 135.914C55.689 138.553 84.108 127.735 90.9028 124.708C92.3477 124.063 93.9621 122.807 95.6086 121.233C95.6263 121.003 95.6446 120.774 95.6623 120.545Z" fill="#DFA040"/>
<path opacity="0.2" d="M95.6623 120.545C95.947 116.796 95.894 113.029 96.1009 109.275C96.167 108.078 96.2338 106.803 96.3346 105.493C89.6105 105.747 82.002 106.184 79.1791 106.906C73.6936 108.31 58.7358 118.1 58.7358 118.1L44.5806 99.4384L31.5566 105.853C31.5566 105.853 48.8274 133.274 52.2585 135.914C55.689 138.553 84.108 127.735 90.9028 124.708C92.3477 124.063 93.9621 122.807 95.6086 121.233C95.6263 121.003 95.6446 120.774 95.6623 120.545Z" fill="#161826"/>
<path d="M32.2557 106.976C31.8131 106.267 31.5571 105.853 31.5571 105.853L44.5811 99.4384L45.4066 100.527L32.2557 106.976Z" fill="white"/>
<path d="M179.465 115.363C179.465 115.363 202.182 88.6931 185.6 105.417C185.6 105.417 198.31 89.5342 184.462 103.666C184.462 103.666 197.531 87.5696 182.593 102.154C182.593 102.154 194.51 87.2262 179.067 102.596C179.067 102.596 174.534 88.5931 176.649 104.903L171.45 110.704L179.465 115.363Z" fill="#F19C7C"/>
<path d="M110.335 104.95C110.335 104.95 116.105 121.903 122.451 125.783C128.797 129.662 155.579 144.057 159.322 141.882C163.066 139.708 183.738 114.745 183.738 114.745L171.652 106.704L155.203 123.383C155.203 123.383 141.636 111.743 136.378 109.644C131.121 107.544 110.335 104.95 110.335 104.95Z" fill="#DFA040"/>
<path d="M171.653 106.704L155.203 123.383C155.203 123.383 141.636 111.743 136.378 109.644C133.119 108.343 122.917 106.554 115.631 105.383C115.184 108.752 114.56 112.098 113.887 115.439C116.548 119.774 119.686 124.093 122.45 125.783C128.797 129.662 155.579 144.057 159.322 141.882C163.065 139.708 183.737 114.745 183.737 114.745L171.653 106.704Z" fill="#DFA040"/>
<path d="M182.9 115.769C183.43 115.123 183.738 114.745 183.738 114.745L171.653 106.704L170.694 107.676L182.9 115.769Z" fill="white"/>
<path d="M129.105 192.539C124.662 195.398 120.897 196.17 116.103 196.23C109.13 196.319 102.037 195.922 95.0901 195.334C93.7546 195.221 92.4283 195.083 91.1091 194.929L91.6021 179.887L89.3526 194.701C83.3323 193.907 80.3562 191.994 74.6973 190.263C77.8593 166.071 79.1208 128.452 84.1808 106.082L97.2047 104.73L97.6453 101.345L103.592 102.148L104.817 103.419L104.352 110.609L107.079 112.31L108.468 104.429L109.964 103.608L119.349 103.329L119.347 106.94L136.216 110.348C136.214 110.348 128.592 166.931 129.105 192.539Z" fill="#DFA040"/>
<path d="M119.347 103.328C114.521 103.394 114.824 103.663 110.023 103.462C109.337 103.433 108.623 104.09 108.594 104.774C108.154 107.001 107.761 109.186 107.39 111.342C107.068 113.215 102.985 109.019 102.683 110.853C101.954 115.297 91.5154 171.229 91.1089 194.928" stroke="white" stroke-width="1.085" stroke-miterlimit="10"/>
<path d="M97.6445 101.344C98.8373 101.566 100.543 101.607 103.323 102.154C104.43 102.372 104.866 103.365 104.766 104.043C104.643 106.273 104.501 108.456 104.35 110.608" stroke="white" stroke-width="0.8333" stroke-miterlimit="10"/>
<path d="M106.171 114.973C106.145 115.587 105.627 116.064 105.012 116.037C104.397 116.011 103.921 115.494 103.947 114.88C103.972 114.266 104.491 113.79 105.106 113.816C105.72 113.842 106.196 114.36 106.171 114.973Z" fill="white"/>
<path d="M103.3 131.118C103.275 131.732 102.755 132.208 102.141 132.182C101.527 132.157 101.051 131.638 101.076 131.025C101.102 130.411 101.62 129.934 102.235 129.96C102.848 129.986 103.326 130.505 103.3 131.118Z" fill="white"/>
<path d="M100.047 150.348C100.022 150.962 99.5032 151.439 98.8884 151.412C98.2744 151.387 97.7971 150.869 97.8233 150.255C97.8488 149.641 98.3673 149.165 98.9821 149.191C99.5961 149.217 100.073 149.735 100.047 150.348Z" fill="white"/>
<path d="M76.2402 166.434C76.2402 166.434 64.4562 220.934 64.0195 258.43C64.0195 258.43 84.5322 264.099 115.956 262.791L114.21 173.847L130.359 171.231V169.486C130.359 169.486 112.029 172.974 76.2402 166.434Z" fill="#DFA040"/>
<mask id="mask0_1680_417" style="mask-type:luminance" maskUnits="userSpaceOnUse" x="64" y="166" width="67" height="97">
<path d="M76.2402 166.434C76.2402 166.434 64.4562 220.934 64.0195 258.43C64.0195 258.43 84.5322 264.099 115.956 262.791L114.21 173.847L130.359 171.231V169.486C130.36 169.486 112.029 172.974 76.2402 166.434Z" fill="white"/>
</mask>
<g mask="url(#mask0_1680_417)">
<path d="M78.7808 165.859C78.7808 165.859 66.7663 221.474 65.4072 263.8" stroke="white" stroke-miterlimit="10"/>
<path d="M81.8359 165.859C81.8359 165.859 69.8215 221.474 68.4624 263.8" stroke="white" stroke-miterlimit="10"/>
<path d="M85.3276 166.295C85.3276 166.295 73.3132 221.91 71.9541 264.237" stroke="white" stroke-miterlimit="10"/>
<path d="M88.3828 166.295C88.3828 166.295 76.3684 221.91 75.0093 264.237" stroke="white" stroke-miterlimit="10"/>
<path d="M91.0015 168.911C91.0015 168.911 78.987 224.526 77.6279 266.853" stroke="white" stroke-miterlimit="10"/>
<path d="M94.0566 168.911C94.0566 168.911 82.0422 224.526 80.6831 266.853" stroke="white" stroke-miterlimit="10"/>
<path d="M97.5483 169.347C97.5483 169.347 85.5339 224.963 84.1748 267.289" stroke="white" stroke-miterlimit="10"/>
<path d="M100.604 169.347C100.604 169.347 88.5891 224.963 87.23 267.289" stroke="white" stroke-miterlimit="10"/>
<path d="M102.931 166.797C102.931 166.797 91.7154 222.578 90.9639 264.92" stroke="white" stroke-miterlimit="10"/>
<path d="M105.985 166.753C105.985 166.753 94.7701 222.535 94.0186 264.876" stroke="white" stroke-miterlimit="10"/>
<path d="M109.483 167.139C109.483 167.139 98.2682 222.92 97.5166 265.262" stroke="white" stroke-miterlimit="10"/>
<path d="M112.538 167.095C112.538 167.095 101.323 222.877 100.571 265.219" stroke="white" stroke-miterlimit="10"/>
<path d="M115.194 169.673C115.194 169.673 103.979 225.456 103.228 267.797" stroke="white" stroke-miterlimit="10"/>
<path d="M118.249 169.63C118.249 169.63 107.034 225.411 106.282 267.753" stroke="white" stroke-miterlimit="10"/>
<path d="M121.746 170.016C121.746 170.016 110.531 225.798 109.779 268.139" stroke="white" stroke-miterlimit="10"/>
<path d="M124.801 169.972C124.801 169.972 113.586 225.754 112.834 268.095" stroke="white" stroke-miterlimit="10"/>
</g>
<path d="M414.903 56.8775C414.73 56.8782 414.562 56.8246 414.421 56.7243L407.819 51.9631L401.216 56.7243C401.075 56.8261 400.905 56.8806 400.731 56.88C400.557 56.8794 400.387 56.8236 400.247 56.7208C400.107 56.6181 400.003 56.4736 399.95 56.3082C399.898 56.1429 399.9 55.9653 399.956 55.8011L402.531 48.2145L395.857 43.6621C395.713 43.5636 395.604 43.4217 395.546 43.2572C395.488 43.0926 395.485 42.914 395.536 42.7474C395.588 42.5809 395.692 42.4351 395.833 42.3314C395.974 42.2277 396.144 42.1715 396.319 42.1711H404.553L407.037 34.565C407.091 34.4008 407.195 34.2577 407.336 34.1562C407.476 34.0547 407.645 34 407.819 34C407.992 34 408.161 34.0547 408.302 34.1562C408.442 34.2577 408.547 34.4008 408.6 34.565L411.085 42.1736H419.318C419.494 42.1735 419.665 42.2293 419.806 42.3328C419.947 42.4363 420.051 42.5821 420.103 42.7488C420.155 42.9154 420.152 43.0943 420.094 43.2591C420.037 43.4239 419.928 43.5661 419.783 43.6647L413.106 48.2145L415.68 55.7991C415.722 55.9219 415.733 56.0528 415.714 56.181C415.695 56.3092 415.645 56.431 415.569 56.5363C415.494 56.6417 415.394 56.7276 415.278 56.7869C415.162 56.8462 415.034 56.8773 414.903 56.8775Z" fill="#DFA040"/>
<path d="M387.903 33.8775C387.73 33.8782 387.562 33.8246 387.421 33.7243L380.819 28.9631L374.216 33.7243C374.075 33.8261 373.905 33.8806 373.731 33.88C373.557 33.8794 373.387 33.8236 373.247 33.7208C373.107 33.6181 373.003 33.4736 372.95 33.3082C372.898 33.1429 372.9 32.9653 372.956 32.8011L375.531 25.2145L368.857 20.6621C368.713 20.5636 368.604 20.4217 368.546 20.2572C368.488 20.0926 368.485 19.914 368.536 19.7474C368.588 19.5809 368.692 19.4351 368.833 19.3314C368.974 19.2277 369.144 19.1715 369.319 19.1711H377.553L380.037 11.565C380.091 11.4008 380.195 11.2577 380.336 11.1562C380.476 11.0547 380.645 11 380.819 11C380.992 11 381.161 11.0547 381.302 11.1562C381.442 11.2577 381.547 11.4008 381.6 11.565L384.085 19.1736H392.318C392.494 19.1735 392.665 19.2293 392.806 19.3328C392.947 19.4363 393.051 19.5821 393.103 19.7488C393.155 19.9154 393.152 20.0943 393.094 20.2591C393.037 20.4239 392.928 20.5661 392.783 20.6647L386.106 25.2145L388.68 32.7991C388.722 32.9219 388.733 33.0528 388.714 33.181C388.695 33.3092 388.645 33.431 388.569 33.5363C388.494 33.6417 388.394 33.7276 388.278 33.7869C388.162 33.8462 388.034 33.8773 387.903 33.8775Z" fill="#DFA040"/>
<path d="M362.903 56.8775C362.73 56.8782 362.562 56.8246 362.421 56.7243L355.819 51.9631L349.216 56.7243C349.075 56.8261 348.905 56.8806 348.731 56.88C348.557 56.8794 348.387 56.8236 348.247 56.7208C348.107 56.6181 348.003 56.4736 347.95 56.3082C347.898 56.1429 347.9 55.9653 347.956 55.8011L350.531 48.2145L343.857 43.6621C343.713 43.5636 343.604 43.4217 343.546 43.2572C343.488 43.0926 343.485 42.914 343.536 42.7474C343.588 42.5809 343.692 42.4351 343.833 42.3314C343.974 42.2277 344.144 42.1715 344.319 42.1711H352.553L355.037 34.565C355.091 34.4008 355.195 34.2577 355.336 34.1562C355.476 34.0547 355.645 34 355.819 34C355.992 34 356.161 34.0547 356.302 34.1562C356.442 34.2577 356.547 34.4008 356.6 34.565L359.085 42.1736H367.318C367.494 42.1735 367.665 42.2293 367.806 42.3328C367.947 42.4363 368.051 42.5821 368.103 42.7488C368.155 42.9154 368.152 43.0943 368.094 43.2591C368.037 43.4239 367.928 43.5661 367.783 43.6647L361.106 48.2145L363.68 55.7991C363.722 55.9219 363.733 56.0528 363.714 56.181C363.695 56.3092 363.645 56.431 363.569 56.5363C363.494 56.6417 363.394 56.7276 363.278 56.7869C363.162 56.8462 363.034 56.8773 362.903 56.8775Z" fill="#DFA040"/>
<path d="M136.903 23.8775C136.73 23.8782 136.562 23.8246 136.421 23.7243L129.819 18.9631L123.216 23.7243C123.075 23.8261 122.905 23.8806 122.731 23.88C122.557 23.8794 122.387 23.8236 122.247 23.7208C122.107 23.6181 122.003 23.4736 121.95 23.3082C121.898 23.1429 121.9 22.9653 121.956 22.8011L124.531 15.2145L117.857 10.6621C117.713 10.5636 117.604 10.4217 117.546 10.2572C117.488 10.0926 117.485 9.91398 117.536 9.74742C117.588 9.58086 117.692 9.43509 117.833 9.33139C117.974 9.22769 118.144 9.17151 118.319 9.17105H126.553L129.037 1.56504C129.091 1.40083 129.195 1.2577 129.336 1.15619C129.476 1.05468 129.645 1 129.819 1C129.992 1 130.161 1.05468 130.302 1.15619C130.442 1.2577 130.547 1.40083 130.6 1.56504L133.085 9.1736H141.318C141.494 9.17352 141.665 9.22931 141.806 9.33281C141.947 9.43631 142.051 9.58207 142.103 9.74876C142.155 9.91545 142.152 10.0943 142.094 10.2591C142.037 10.4239 141.928 10.5661 141.783 10.6647L135.106 15.2145L137.68 22.7991C137.722 22.9219 137.733 23.0528 137.714 23.181C137.695 23.3092 137.645 23.431 137.569 23.5363C137.494 23.6417 137.394 23.7276 137.278 23.7869C137.162 23.8462 137.034 23.8773 136.903 23.8775Z" fill="#DFA040"/>
<path d="M169.903 42.8775C169.73 42.8782 169.562 42.8246 169.421 42.7243L162.819 37.9631L156.216 42.7243C156.075 42.8261 155.905 42.8806 155.731 42.88C155.557 42.8794 155.387 42.8236 155.247 42.7208C155.107 42.6181 155.003 42.4736 154.95 42.3082C154.898 42.1429 154.9 41.9653 154.956 41.8011L157.531 34.2145L150.857 29.6621C150.713 29.5636 150.604 29.4217 150.546 29.2572C150.488 29.0926 150.485 28.914 150.536 28.7474C150.588 28.5809 150.692 28.4351 150.833 28.3314C150.974 28.2277 151.144 28.1715 151.319 28.1711H159.553L162.037 20.565C162.091 20.4008 162.195 20.2577 162.336 20.1562C162.476 20.0547 162.645 20 162.819 20C162.992 20 163.161 20.0547 163.302 20.1562C163.442 20.2577 163.547 20.4008 163.6 20.565L166.085 28.1736H174.318C174.494 28.1735 174.665 28.2293 174.806 28.3328C174.947 28.4363 175.051 28.5821 175.103 28.7488C175.155 28.9154 175.152 29.0943 175.094 29.2591C175.037 29.4239 174.928 29.5661 174.783 29.6647L168.106 34.2145L170.68 41.7991C170.722 41.9219 170.733 42.0528 170.714 42.181C170.695 42.3092 170.645 42.431 170.569 42.5363C170.494 42.6417 170.394 42.7276 170.278 42.7869C170.162 42.8462 170.034 42.8773 169.903 42.8775Z" fill="#DFA040"/>
<path d="M300.903 94.3775C300.73 94.3782 300.562 94.3246 300.421 94.2243L293.819 89.4631L287.216 94.2243C287.075 94.3261 286.905 94.3806 286.731 94.38C286.557 94.3794 286.387 94.3236 286.247 94.2208C286.107 94.1181 286.003 93.9736 285.95 93.8082C285.898 93.6429 285.9 93.4653 285.956 93.3011L288.531 85.7145L281.857 81.1621C281.713 81.0636 281.604 80.9217 281.546 80.7572C281.488 80.5926 281.485 80.414 281.536 80.2474C281.588 80.0809 281.692 79.9351 281.833 79.8314C281.974 79.7277 282.144 79.6715 282.319 79.6711H290.553L293.037 72.065C293.091 71.9008 293.195 71.7577 293.336 71.6562C293.476 71.5547 293.645 71.5 293.819 71.5C293.992 71.5 294.161 71.5547 294.302 71.6562C294.442 71.7577 294.547 71.9008 294.6 72.065L297.085 79.6736H305.318C305.494 79.6735 305.665 79.7293 305.806 79.8328C305.947 79.9363 306.051 80.0821 306.103 80.2488C306.155 80.4154 306.152 80.5943 306.094 80.7591C306.037 80.9239 305.928 81.0661 305.783 81.1647L299.106 85.7145L301.68 93.2991C301.722 93.4219 301.733 93.5528 301.714 93.681C301.695 93.8092 301.645 93.931 301.569 94.0363C301.494 94.1417 301.394 94.2276 301.278 94.2869C301.162 94.3462 301.034 94.3773 300.903 94.3775Z" fill="#DFA040"/>
</g>
<defs>
<clipPath id="clip0_1680_417">
<rect width="491" height="327" fill="white" transform="translate(0.5 0.5)"/>
</clipPath>
</defs>
</svg>
