<svg width="51" height="51" viewBox="0 0 51 51" fill="none" xmlns="http://www.w3.org/2000/svg">
<circle cx="25.5" cy="25.5" r="25.5" fill="#DFA040"/>
<path d="M26.5716 15.0847C27.3317 15.0817 28.0919 15.0894 28.8518 15.1076L29.0539 15.1149C29.2872 15.1232 29.5174 15.1336 29.7956 15.1461C30.9039 15.1982 31.6601 15.3732 32.3237 15.6305C33.0112 15.8951 33.5903 16.2534 34.1695 16.8326C34.6991 17.353 35.1089 17.9825 35.3706 18.6774C35.6278 19.3409 35.8028 20.0982 35.8549 21.2065C35.8674 21.4836 35.8778 21.7149 35.8862 21.9482L35.8924 22.1503C35.9109 22.9099 35.9189 23.6697 35.9164 24.4294L35.9174 25.2065V26.5711C35.92 27.3313 35.912 28.0914 35.8935 28.8513L35.8872 29.0534C35.8789 29.2867 35.8685 29.5169 35.856 29.7951C35.8039 30.9034 35.6268 31.6597 35.3706 32.3232C35.1098 33.0188 34.6998 33.6488 34.1695 34.169C33.6486 34.6985 33.0188 35.1084 32.3237 35.3701C31.6601 35.6274 30.9039 35.8024 29.7956 35.8545C29.5174 35.8669 29.2872 35.8774 29.0539 35.8857L28.8518 35.8919C28.0919 35.9105 27.3317 35.9185 26.5716 35.9159L25.7945 35.917H24.431C23.6708 35.9195 22.9107 35.9115 22.1508 35.893L21.9487 35.8867C21.7014 35.8778 21.4542 35.8674 21.207 35.8555C20.0987 35.8034 19.3424 35.6263 18.6778 35.3701C17.9827 35.109 17.3531 34.6991 16.8331 34.169C16.3029 33.6485 15.8927 33.0186 15.631 32.3232C15.3737 31.6597 15.1987 30.9034 15.1466 29.7951C15.135 29.5479 15.1246 29.3007 15.1153 29.0534L15.1101 28.8513C15.0909 28.0914 15.0823 27.3313 15.0841 26.5711V24.4294C15.0812 23.6697 15.0888 22.9099 15.107 22.1503L15.1143 21.9482C15.1226 21.7149 15.1331 21.4836 15.1456 21.2065C15.1976 20.0972 15.3726 19.3419 15.6299 18.6774C15.8918 17.9822 16.3028 17.3528 16.8341 16.8336C17.3538 16.3031 17.983 15.8925 18.6778 15.6305C19.3424 15.3732 20.0976 15.1982 21.207 15.1461L21.9487 15.1149L22.1508 15.1097C22.9103 15.0905 23.6701 15.0818 24.4299 15.0836L26.5716 15.0847ZM25.5008 20.293C24.8107 20.2832 24.1255 20.4107 23.4851 20.6681C22.8447 20.9254 22.2619 21.3074 21.7704 21.792C21.2789 22.2766 20.8887 22.854 20.6223 23.4907C20.3559 24.1274 20.2188 24.8106 20.2188 25.5008C20.2188 26.191 20.3559 26.8743 20.6223 27.5109C20.8887 28.1476 21.2789 28.725 21.7704 29.2096C22.2619 29.6942 22.8447 30.0762 23.4851 30.3335C24.1255 30.5909 24.8107 30.7184 25.5008 30.7086C26.8821 30.7086 28.2069 30.1599 29.1836 29.1831C30.1604 28.2064 30.7091 26.8816 30.7091 25.5003C30.7091 24.1189 30.1604 22.7942 29.1836 21.8174C28.2069 20.8407 26.8821 20.293 25.5008 20.293ZM25.5008 22.3763C25.9159 22.3687 26.3283 22.4438 26.7141 22.5974C27.0998 22.7509 27.4511 22.9798 27.7474 23.2706C28.0437 23.5615 28.2791 23.9084 28.4398 24.2913C28.6005 24.6741 28.6833 25.0851 28.6833 25.5003C28.6834 25.9155 28.6007 26.3265 28.4402 26.7094C28.2796 27.0922 28.0443 27.4393 27.7482 27.7302C27.452 28.0212 27.1008 28.2501 26.7151 28.4038C26.3294 28.5575 25.9169 28.6328 25.5018 28.6253C24.673 28.6253 23.8781 28.296 23.2921 27.71C22.706 27.1239 22.3768 26.3291 22.3768 25.5003C22.3768 24.6715 22.706 23.8766 23.2921 23.2906C23.8781 22.7045 24.673 22.3753 25.5018 22.3753L25.5008 22.3763ZM30.9695 18.7305C30.6335 18.7439 30.3157 18.8869 30.0826 19.1294C29.8496 19.3719 29.7195 19.6952 29.7195 20.0315C29.7195 20.3678 29.8496 20.6911 30.0826 20.9336C30.3157 21.1762 30.6335 21.3191 30.9695 21.3326C31.3148 21.3326 31.646 21.1954 31.8902 20.9512C32.1344 20.707 32.2716 20.3758 32.2716 20.0305C32.2716 19.6852 32.1344 19.354 31.8902 19.1098C31.646 18.8656 31.3148 18.7284 30.9695 18.7284V18.7305Z" fill="black"/>
</svg>
