<svg width="51" height="51" viewBox="0 0 51 51" fill="none" xmlns="http://www.w3.org/2000/svg">
<circle cx="25.5" cy="25.5" r="25.5" fill="#DFA040"/>
<path d="M32.5833 17C33.158 17 33.7091 17.2283 34.1154 17.6346C34.5217 18.0409 34.75 18.592 34.75 19.1667V34.3333C34.75 34.908 34.5217 35.4591 34.1154 35.8654C33.7091 36.2717 33.158 36.5 32.5833 36.5H17.4167C16.842 36.5 16.2909 36.2717 15.8846 35.8654C15.4783 35.4591 15.25 34.908 15.25 34.3333V19.1667C15.25 18.592 15.4783 18.0409 15.8846 17.6346C16.2909 17.2283 16.842 17 17.4167 17H32.5833ZM32.0417 33.7917V28.05C32.0417 27.1133 31.6696 26.2151 31.0073 25.5527C30.3449 24.8904 29.4467 24.5183 28.51 24.5183C27.5892 24.5183 26.5167 25.0817 25.9967 25.9267V24.7242H22.9742V33.7917H25.9967V28.4508C25.9967 27.6167 26.6683 26.9342 27.5025 26.9342C27.9047 26.9342 28.2905 27.094 28.5749 27.3784C28.8594 27.6628 29.0192 28.0486 29.0192 28.4508V33.7917H32.0417ZM19.4533 23.0233C19.936 23.0233 20.399 22.8316 20.7403 22.4903C21.0816 22.149 21.2733 21.686 21.2733 21.2033C21.2733 20.1958 20.4608 19.3725 19.4533 19.3725C18.9678 19.3725 18.5021 19.5654 18.1587 19.9087C17.8154 20.2521 17.6225 20.7178 17.6225 21.2033C17.6225 22.2108 18.4458 23.0233 19.4533 23.0233ZM20.9592 33.7917V24.7242H17.9583V33.7917H20.9592Z" fill="black"/>
</svg>
