<svg width="268" height="45" viewBox="0 0 268 45" fill="none" xmlns="http://www.w3.org/2000/svg">
<path d="M37.511 44.7453C37.1812 44.7466 36.8595 44.6435 36.5915 44.4507L23.9976 35.2945L11.4036 44.4507C11.1345 44.6464 10.8104 44.7512 10.478 44.75C10.1456 44.7488 9.82224 44.6416 9.5546 44.4439C9.28696 44.2463 9.08895 43.9684 8.98917 43.6504C8.8894 43.3325 8.89304 42.9909 8.99957 42.6752L13.9114 28.0856L1.18135 19.331C0.905606 19.1416 0.697492 18.8687 0.587413 18.5522C0.477335 18.2358 0.47106 17.8923 0.569506 17.572C0.667953 17.2517 0.865961 16.9713 1.1346 16.7719C1.40324 16.5725 1.72843 16.4644 2.06266 16.4636H17.7677L22.5072 1.83661C22.6093 1.52082 22.8085 1.24558 23.0762 1.05036C23.344 0.85515 23.6665 0.75 23.9976 0.75C24.3286 0.75 24.6511 0.85515 24.9189 1.05036C25.1866 1.24558 25.3859 1.52082 25.488 1.83661L30.2275 16.4685H45.9325C46.2671 16.4683 46.593 16.5756 46.8625 16.7746C47.1319 16.9737 47.3307 17.254 47.4298 17.5745C47.5288 17.8951 47.523 18.239 47.413 18.556C47.303 18.8729 47.0947 19.1463 46.8187 19.3359L34.0837 28.0856L38.9926 42.6713C39.0721 42.9074 39.0945 43.1592 39.0579 43.4057C39.0212 43.6522 38.9266 43.8865 38.7819 44.0891C38.6371 44.2917 38.4464 44.4569 38.2254 44.571C38.0044 44.6851 37.7596 44.7448 37.511 44.7453Z" fill="#DFA040"/>
<path d="M92.511 44.7453C92.1812 44.7466 91.8595 44.6435 91.5915 44.4507L78.9976 35.2945L66.4036 44.4507C66.1345 44.6464 65.8104 44.7512 65.478 44.75C65.1456 44.7488 64.8222 44.6416 64.5546 44.4439C64.287 44.2463 64.0889 43.9684 63.9892 43.6504C63.8894 43.3325 63.893 42.9909 63.9996 42.6752L68.9114 28.0856L56.1813 19.331C55.9056 19.1416 55.6975 18.8687 55.5874 18.5522C55.4773 18.2358 55.4711 17.8923 55.5695 17.572C55.668 17.2517 55.866 16.9713 56.1346 16.7719C56.4032 16.5725 56.7284 16.4644 57.0627 16.4636H72.7677L77.5072 1.83661C77.6093 1.52082 77.8085 1.24558 78.0762 1.05036C78.344 0.85515 78.6665 0.75 78.9976 0.75C79.3286 0.75 79.6511 0.85515 79.9189 1.05036C80.1866 1.24558 80.3859 1.52082 80.488 1.83661L85.2275 16.4685H100.932C101.267 16.4683 101.593 16.5756 101.862 16.7746C102.132 16.9737 102.331 17.254 102.43 17.5745C102.529 17.8951 102.523 18.239 102.413 18.556C102.303 18.8729 102.095 19.1463 101.819 19.3359L89.0837 28.0856L93.9926 42.6713C94.0721 42.9074 94.0945 43.1592 94.0579 43.4057C94.0212 43.6522 93.9266 43.8865 93.7819 44.0891C93.6371 44.2917 93.4464 44.4569 93.2254 44.571C93.0044 44.6851 92.7596 44.7448 92.511 44.7453Z" fill="#DFA040"/>
<path d="M147.511 44.7453C147.181 44.7466 146.859 44.6435 146.592 44.4507L133.998 35.2945L121.404 44.4507C121.135 44.6464 120.81 44.7512 120.478 44.75C120.146 44.7488 119.822 44.6416 119.555 44.4439C119.287 44.2463 119.089 43.9684 118.989 43.6504C118.889 43.3325 118.893 42.9909 119 42.6752L123.911 28.0856L111.181 19.331C110.906 19.1416 110.697 18.8687 110.587 18.5522C110.477 18.2358 110.471 17.8923 110.57 17.572C110.668 17.2517 110.866 16.9713 111.135 16.7719C111.403 16.5725 111.728 16.4644 112.063 16.4636H127.768L132.507 1.83661C132.609 1.52082 132.808 1.24558 133.076 1.05036C133.344 0.85515 133.667 0.75 133.998 0.75C134.329 0.75 134.651 0.85515 134.919 1.05036C135.187 1.24558 135.386 1.52082 135.488 1.83661L140.227 16.4685H155.932C156.267 16.4683 156.593 16.5756 156.862 16.7746C157.132 16.9737 157.331 17.254 157.43 17.5745C157.529 17.8951 157.523 18.239 157.413 18.556C157.303 18.8729 157.095 19.1463 156.819 19.3359L144.084 28.0856L148.993 42.6713C149.072 42.9074 149.095 43.1592 149.058 43.4057C149.021 43.6522 148.927 43.8865 148.782 44.0891C148.637 44.2917 148.446 44.4569 148.225 44.571C148.004 44.6851 147.76 44.7448 147.511 44.7453Z" fill="#DFA040"/>
<path d="M202.511 44.7453C202.181 44.7466 201.859 44.6435 201.592 44.4507L188.998 35.2945L176.404 44.4507C176.135 44.6464 175.81 44.7512 175.478 44.75C175.146 44.7488 174.822 44.6416 174.555 44.4439C174.287 44.2463 174.089 43.9684 173.989 43.6504C173.889 43.3325 173.893 42.9909 174 42.6752L178.911 28.0856L166.181 19.331C165.906 19.1416 165.697 18.8687 165.587 18.5522C165.477 18.2358 165.471 17.8923 165.57 17.572C165.668 17.2517 165.866 16.9713 166.135 16.7719C166.403 16.5725 166.728 16.4644 167.063 16.4636H182.768L187.507 1.83661C187.609 1.52082 187.808 1.24558 188.076 1.05036C188.344 0.85515 188.667 0.75 188.998 0.75C189.329 0.75 189.651 0.85515 189.919 1.05036C190.187 1.24558 190.386 1.52082 190.488 1.83661L195.227 16.4685H210.932C211.267 16.4683 211.593 16.5756 211.862 16.7746C212.132 16.9737 212.331 17.254 212.43 17.5745C212.529 17.8951 212.523 18.239 212.413 18.556C212.303 18.8729 212.095 19.1463 211.819 19.3359L199.084 28.0856L203.993 42.6713C204.072 42.9074 204.095 43.1592 204.058 43.4057C204.021 43.6522 203.927 43.8865 203.782 44.0891C203.637 44.2917 203.446 44.4569 203.225 44.571C203.004 44.6851 202.76 44.7448 202.511 44.7453Z" fill="#DFA040"/>
<path d="M257.511 44.7453C257.181 44.7466 256.859 44.6435 256.592 44.4507L243.998 35.2945L231.404 44.4507C231.135 44.6464 230.81 44.7512 230.478 44.75C230.146 44.7488 229.822 44.6416 229.555 44.4439C229.287 44.2463 229.089 43.9684 228.989 43.6504C228.889 43.3325 228.893 42.9909 229 42.6752L233.911 28.0856L221.181 19.331C220.906 19.1416 220.697 18.8687 220.587 18.5522C220.477 18.2358 220.471 17.8923 220.57 17.572C220.668 17.2517 220.866 16.9713 221.135 16.7719C221.403 16.5725 221.728 16.4644 222.063 16.4636H237.768L242.507 1.83661C242.609 1.52082 242.808 1.24558 243.076 1.05036C243.344 0.85515 243.667 0.75 243.998 0.75C244.329 0.75 244.651 0.85515 244.919 1.05036C245.187 1.24558 245.386 1.52082 245.488 1.83661L250.227 16.4685H265.932C266.267 16.4683 266.593 16.5756 266.862 16.7746C267.132 16.9737 267.331 17.254 267.43 17.5745C267.529 17.8951 267.523 18.239 267.413 18.556C267.303 18.8729 267.095 19.1463 266.819 19.3359L254.084 28.0856L258.993 42.6713C259.072 42.9074 259.095 43.1592 259.058 43.4057C259.021 43.6522 258.927 43.8865 258.782 44.0891C258.637 44.2917 258.446 44.4569 258.225 44.571C258.004 44.6851 257.76 44.7448 257.511 44.7453Z" fill="#DFA040"/>
</svg>
