<svg width="51" height="51" viewBox="0 0 51 51" fill="none" xmlns="http://www.w3.org/2000/svg">
<circle cx="25.5" cy="25.5" r="25.5" fill="#DFA040"/>
<path d="M22.8332 30.25L28.4557 27L22.8332 23.75V30.25ZM35.3565 21.7675C35.4973 22.2766 35.5948 22.9591 35.6598 23.8258C35.7357 24.6925 35.7682 25.44 35.7682 26.09L35.8332 27C35.8332 29.3725 35.6598 31.1166 35.3565 32.2325C35.0857 33.2075 34.4573 33.8358 33.4823 34.1066C32.9732 34.2475 32.0415 34.345 30.6115 34.41C29.2032 34.4858 27.914 34.5183 26.7223 34.5183L24.9998 34.5833C20.4607 34.5833 17.6332 34.41 16.5173 34.1066C15.5423 33.8358 14.914 33.2075 14.6432 32.2325C14.5023 31.7233 14.4048 31.0408 14.3398 30.1741C14.264 29.3075 14.2315 28.56 14.2315 27.91L14.1665 27C14.1665 24.6275 14.3398 22.8833 14.6432 21.7675C14.914 20.7925 15.5423 20.1641 16.5173 19.8933C17.0265 19.7525 17.9582 19.655 19.3882 19.59C20.7965 19.5141 22.0857 19.4816 23.2773 19.4816L24.9998 19.4166C29.539 19.4166 32.3665 19.59 33.4823 19.8933C34.4573 20.1641 35.0857 20.7925 35.3565 21.7675Z" fill="black"/>
</svg>
